Coordinates
version=1
nRows=36
nColumns=38
inDegrees=no

Units are S.I. units (second, meters, Newtons, ...)
If the header above contains a line with 'inDegrees', this indicates whether rotational values are in degrees (yes) or radians (no).

endheader
time	pelvis_tilt	pelvis_list	pelvis_rotation	pelvis_tx	pelvis_ty	pelvis_tz	hip_flexion_r	hip_adduction_r	hip_rotation_r	knee_angle_r	ankle_angle_r	subtalar_angle_r	mtp_angle_r	hip_flexion_l	hip_adduction_l	hip_rotation_l	knee_angle_l	ankle_angle_l	subtalar_angle_l	mtp_angle_l	lumbar_extension	lumbar_bending	lumbar_rotation	arm_flex_r	arm_add_r	arm_rot_r	elbow_flex_r	pro_sup_r	wrist_flex_r	wrist_dev_r	arm_flex_l	arm_add_l	arm_rot_l	elbow_flex_l	pro_sup_l	wrist_flex_l	wrist_dev_l
7.9925	-0.221191	-0.00468079	-3.10782	-0.302785	0.969927	-0.00637225	-0.344254	0.077003	-0.0440637	0.185855	0.280275	0	0	0.303776	-0.0642039	-0.233022	0.556498	0.0391687	0	0	-0.471914	-0.0185364	0.105912	0.780423	-0.429858	1.28158	0.802407	0.593025	0	0	0.0273351	-0.277257	1.57037	0.346031	-0.00096263	0	0
8.00249	-0.224182	-0.00324228	-3.10457	-0.302206	0.967391	-0.005883	-0.366789	0.0802766	-0.0444407	0.178192	0.289901	0	0	0.302939	-0.0583511	-0.23167	0.495379	0.0455515	0	0	-0.476362	-0.0167135	0.109345	0.794696	-0.439288	1.25643	0.826066	0.620157	0	0	0.0117664	-0.281494	1.57036	0.343394	-0.000386587	0	0
8.01248	-0.226533	-0.00195348	-3.10136	-0.301783	0.964746	-0.00530742	-0.388191	0.0831912	-0.0449049	0.171708	0.299347	0	0	0.302148	-0.0519746	-0.227892	0.435966	0.0526253	0	0	-0.479888	-0.0151231	0.112861	0.807204	-0.44807	1.23263	0.847832	0.64521	0	0	-0.00297926	-0.285762	1.57038	0.340954	1.08678e-05	0	0
8.02247	-0.228248	-0.000909843	-3.09838	-0.301526	0.96203	-0.00465803	-0.408339	0.0855566	-0.0453721	0.166605	0.308471	0	0	0.301548	-0.0450793	-0.221354	0.379353	0.0605428	0	0	-0.482498	-0.0139519	0.116503	0.817915	-0.456128	1.21017	0.867639	0.668201	0	0	-0.016923	-0.290025	1.57043	0.338652	0.000262456	0	0
8.03246	-0.229364	-0.000195418	-3.09582	-0.301446	0.95928	-0.003947	-0.427133	0.087194	-0.0457585	0.163093	0.31711	0	0	0.301248	-0.0377155	-0.211842	0.326663	0.0692779	0	0	-0.484227	-0.0133689	0.120319	0.826793	-0.463412	1.18902	0.885474	0.689162	0	0	-0.0300778	-0.294245	1.57049	0.336436	0.000400789	0	0
8.04246	-0.229932	0.000116246	-3.09384	-0.301553	0.95653	-0.00318613	-0.444503	0.0879436	-0.0459928	0.161354	0.325075	0	0	0.301337	-0.0299759	-0.199347	0.279008	0.078576	0	0	-0.485125	-0.0135213	0.124343	0.833803	-0.469882	1.16915	0.901353	0.708131	0	0	-0.0424544	-0.298387	1.57055	0.334263	0.000455866	0	0
8.05245	-0.23001	-3.49113e-05	-3.09257	-0.301862	0.953812	-0.00238691	-0.460398	0.0876694	-0.0460168	0.161536	0.332145	0	0	0.301905	-0.0219939	-0.18415	0.237465	0.0879312	0	0	-0.48524	-0.0145291	0.128605	0.838916	-0.47551	1.15055	0.915315	0.725148	0	0	-0.0540632	-0.302424	1.57061	0.332107	0.000453692	0	0
8.06244	-0.22966	-0.000686498	-3.09211	-0.302385	0.951151	-0.00156043	-0.474786	0.0862701	-0.0457877	0.163746	0.338066	0	0	0.303045	-0.0139386	-0.166883	0.20303	0.0966093	0	0	-0.484619	-0.0164743	0.133125	0.84211	-0.480277	1.13321	0.927418	0.740247	0	0	-0.0649101	-0.30633	1.57067	0.329954	0.00041573	0	0
8.07243	-0.228948	-0.00185906	-3.09252	-0.303135	0.94857	-0.000716711	-0.487648	0.0836772	-0.0452917	0.168058	0.342549	0	0	0.304855	-0.00598626	-0.148498	0.176538	0.10371	0	0	-0.483302	-0.0194036	0.137924	0.843373	-0.484182	1.11719	0.937734	0.753475	0	0	-0.0749931	-0.31009	1.57071	0.327813	0.000358923	0	0
8.08242	-0.227931	-0.00357042	-3.09385	-0.304125	0.946089	0.000135882	-0.498967	0.0798415	-0.0445624	0.174534	0.345281	0	0	0.307417	0.00171874	-0.130168	0.158571	0.108258	0	0	-0.481321	-0.0233449	0.143014	0.842679	-0.487241	1.10248	0.946349	0.764934	0	0	-0.0842988	-0.313695	1.57075	0.325709	0.000296074	0	0
8.09241	-0.226655	-0.00584584	-3.09611	-0.305366	0.943725	0.000991026	-0.508717	0.0747192	-0.0436985	0.18325	0.345921	0	0	0.310777	0.00908669	-0.11313	0.149347	0.109323	0	0	-0.478686	-0.0283183	0.148396	0.839988	-0.489481	1.08906	0.953348	0.774796	0	0	-0.0928052	-0.317147	1.57078	0.323684	0.000236409	0	0
8.1024	-0.225155	-0.00872462	-3.09926	-0.306867	0.941493	0.00184473	-0.516868	0.0682599	-0.0428725	0.19431	0.344104	0	0	0.314911	0.0160923	-0.098494	0.148642	0.106156	0	0	-0.475399	-0.0343447	0.154055	0.835256	-0.490932	1.0769	0.958807	0.783293	0	0	-0.100484	-0.320454	1.5708	0.321785	0.000186204	0	0
8.11239	-0.22347	-0.0122574	-3.10326	-0.308634	0.939407	0.00269587	-0.523407	0.0604029	-0.0423325	0.20786	0.339432	0	0	0.319703	0.022766	-0.087097	0.155802	0.098344	0	0	-0.471464	-0.0414426	0.159958	0.828445	-0.491622	1.06596	0.962776	0.790698	0	0	-0.107304	-0.323621	1.57081	0.320061	0.00014938	0	0
8.12238	-0.22165	-0.0164881	-3.10806	-0.31067	0.937484	0.0035465	-0.528361	0.0510877	-0.0423696	0.224082	0.331493	0	0	0.324948	0.0291635	-0.0794416	0.169828	0.0859853	0	0	-0.46691	-0.0496085	0.16605	0.819562	-0.491569	1.05624	0.965276	0.797277	0	0	-0.113236	-0.326641	1.57082	0.318556	0.000128003	0	0
8.13237	-0.219765	-0.0214326	-3.1136	-0.31297	0.93574	0.00440223	-0.531762	0.0402703	-0.0432808	0.243195	0.319875	0	0	0.330381	0.0353378	-0.0757035	0.18953	0.0697692	0	0	-0.461795	-0.0587951	0.172269	0.80867	-0.490784	1.0478	0.966292	0.803274	0	0	-0.118246	-0.329483	1.57083	0.317296	0.000122651	0	0
8.14236	-0.217902	-0.0270744	-3.11978	-0.315516	0.934195	0.00527274	-0.533591	0.0279308	-0.0453394	0.265463	0.304197	0	0	0.335713	0.0413315	-0.075767	0.213678	0.0508819	0	0	-0.456219	-0.0689038	0.178521	0.795906	-0.489263	1.04078	0.965771	0.808875	0	0	-0.122303	-0.332094	1.57083	0.316295	0.000132627	0	0
8.15235	-0.216128	-0.0333396	-3.12652	-0.31828	0.932865	0.00616892	-0.533751	0.0140944	-0.0487378	0.291193	0.284149	0	0	0.340697	0.0471464	-0.0792987	0.241136	0.0308029	0	0	-0.450291	-0.0797692	0.184704	0.781491	-0.486991	1.0354	0.963621	0.814185	0	0	-0.125361	-0.334388	1.57083	0.315541	0.000156011	0	0
8.16234	-0.214473	-0.0400964	-3.13371	-0.321214	0.931762	0.00710213	-0.532044	-0.00115549	-0.05357	0.320721	0.259528	0	0	0.345153	0.0527525	-0.0857905	0.270916	0.0110968	0	0	-0.444113	-0.0911581	0.190695	0.765714	-0.483941	1.03197	0.959714	0.819206	0	0	-0.127367	-0.336265	1.57083	0.315011	0.000189564	0	0
8.17233	-0.212923	-0.0471699	-3.1412	-0.324261	0.930892	0.00808416	-0.528171	-0.0176737	-0.0598322	0.354364	0.230282	0	0	0.348967	0.0581175	-0.0945865	0.30216	-0.00675162	0	0	-0.43777	-0.102781	0.19632	0.748925	-0.480067	1.03083	0.953895	0.823811	0	0	-0.128264	-0.337622	1.57082	0.31468	0.000228489	0	0
8.18232	-0.211434	-0.0543606	-3.14881	-0.327349	0.930257	0.00912627	-0.52175	-0.035258	-0.0674151	0.392377	0.196538	0	0	0.352059	0.0632286	-0.104931	0.334099	-0.0214693	0	0	-0.431343	-0.114312	0.201357	0.731531	-0.475303	1.03241	0.945991	0.827718	0	0	-0.127985	-0.338365	1.57082	0.314528	0.000266103	0	0
8.19231	-0.209942	-0.061473	-3.15634	-0.330399	0.929853	0.010238	-0.51235	-0.0536638	-0.0761058	0.434892	0.158637	0	0	0.354352	0.0681112	-0.116043	0.365996	-0.0321176	0	0	-0.424922	-0.125427	0.205535	0.713971	-0.469566	1.03716	0.935819	0.830497	0	0	-0.126451	-0.338425	1.57081	0.314556	0.000293448	0	0
8.20231	-0.208389	-0.0683444	-3.16356	-0.333326	0.929678	0.0114259	-0.499563	-0.0726258	-0.085591	0.481861	0.117135	0	0	0.355745	0.0728343	-0.127205	0.397119	-0.0381792	0	0	-0.418611	-0.135841	0.208555	0.696683	-0.462768	1.04552	0.923204	0.831597	0	0	-0.123571	-0.337766	1.57079	0.314788	0.000298911	0	0
8.2123	-0.206751	-0.0748764	-3.17028	-0.336054	0.92973	0.0126939	-0.483089	-0.0918855	-0.095492	0.53299	0.0727961	0	0	0.356069	0.0775205	-0.137828	0.426733	-0.0395513	0	0	-0.412543	-0.145348	0.21011	0.680065	-0.45482	1.05791	0.907997	0.830381	0	0	-0.119258	-0.336396	1.57077	0.315273	0.000267959	0	0
8.22229	-0.205059	-0.0810192	-3.17633	-0.338516	0.930011	0.0140418	-0.462871	-0.111185	-0.10539	0.587719	0.0265368	0	0	0.355092	0.0823045	-0.147485	0.454138	-0.0364599	0	0	-0.406884	-0.153814	0.209928	0.664448	-0.445652	1.07466	0.890097	0.826148	0	0	-0.113431	-0.334362	1.57075	0.316075	0.00018308	0	0
8.23228	-0.203398	-0.0867393	-3.18163	-0.340657	0.930527	0.0154641	-0.439114	-0.130249	-0.114864	0.645247	-0.0206268	0	0	0.35254	0.0872873	-0.155893	0.478723	-0.0293659	0	0	-0.40183	-0.161155	0.207815	0.650064	-0.435241	1.09598	0.869482	0.818193	0	0	-0.106016	-0.331733	1.57072	0.317263	2.40909e-05	0	0
8.24227	-0.201875	-0.091996	-3.18611	-0.342442	0.931289	0.0169499	-0.4122	-0.148786	-0.123539	0.704603	-0.0676144	0	0	0.348152	0.0925097	-0.162887	0.499993	-0.0189076	0	0	-0.397559	-0.167317	0.203699	0.637006	-0.423624	1.12191	0.846225	0.805864	0	0	-0.0969472	-0.3286	1.57068	0.318894	-0.000231013	0	0
8.25226	-0.200575	-0.0967342	-3.18981	-0.343852	0.932308	0.0184835	-0.382596	-0.166494	-0.131112	0.76472	-0.113283	0	0	0.341725	0.0979479	-0.168395	0.517585	-0.00585996	0	0	-0.394191	-0.172269	0.197642	0.625212	-0.410908	1.15226	0.820508	0.788622	0	0	-0.0861711	-0.325062	1.57063	0.321007	-0.000604478	0	0
8.26225	-0.199536	-0.100887	-3.19278	-0.344883	0.933594	0.0200468	-0.350781	-0.183075	-0.137371	0.824517	-0.15642	0	0	0.333149	0.103523	-0.172413	0.531259	0.00894009	0	0	-0.391763	-0.176002	0.189837	0.614465	-0.397274	1.18661	0.792616	0.766093	0	0	-0.0736398	-0.32122	1.57059	0.323614	-0.00111625	0	0
8.27224	-0.198732	-0.104375	-3.1951	-0.345546	0.935152	0.0216216	-0.317196	-0.198233	-0.142199	0.882979	-0.195739	0	0	0.322426	0.109107	-0.174995	0.540905	0.0246905	0	0	-0.390215	-0.17851	0.180571	0.604423	-0.382964	1.22432	0.76293	0.738083	0	0	-0.0593171	-0.317175	1.57054	0.326703	-0.00178025	0	0
8.28223	-0.198075	-0.107102	-3.19687	-0.34586	0.936985	0.0231921	-0.282217	-0.211674	-0.145559	0.939223	-0.229878	0	0	0.309669	0.114523	-0.176236	0.546537	0.0406874	0	0	-0.389397	-0.179775	0.170208	0.594655	-0.36828	1.26454	0.731914	0.704606	0	0	-0.0431837	-0.313012	1.57049	0.33024	-0.00259927	0	0
8.29222	-0.197428	-0.108951	-3.19815	-0.345856	0.939084	0.0247463	-0.246152	-0.223106	-0.147497	0.992518	-0.257449	0	0	0.295092	0.119553	-0.176244	0.548295	0.0563544	0	0	-0.389088	-0.179752	0.159143	0.584674	-0.353571	1.30627	0.700101	0.665932	0	0	-0.0252398	-0.308799	1.57046	0.33418	-0.00355839	0	0
8.30221	-0.196636	-0.1098	-3.19897	-0.345569	0.941435	0.0262775	-0.209268	-0.232272	-0.14816	1.04226	-0.277247	0	0	0.278975	0.123968	-0.175116	0.546427	0.0712528	0	0	-0.389034	-0.178376	0.147773	0.573985	-0.339225	1.34835	0.668075	0.622607	0	0	-0.00550331	-0.304593	1.57045	0.338486	-0.00461678	0	0
8.3122	-0.195548	-0.109544	-3.19933	-0.345036	0.944012	0.0277832	-0.171812	-0.238981	-0.147806	1.08791	-0.288571	0	0	0.261628	0.127555	-0.172927	0.541261	0.085077	0	0	-0.38899	-0.175579	0.13645	0.562134	-0.325641	1.38954	0.636451	0.575442	0	0	0.0159958	-0.300444	1.57048	0.343146	-0.00569814	0	0
8.32219	-0.194052	-0.108111	-3.19921	-0.34429	0.946784	0.0292652	-0.134037	-0.243139	-0.146781	1.129	-0.291473	0	0	0.24335	0.130148	-0.169723	0.533167	0.0976423	0	0	-0.388759	-0.171311	0.125459	0.548737	-0.313213	1.42856	0.605846	0.525498	0	0	0.0392181	-0.296402	1.57057	0.348181	-0.00668022	0	0
8.33218	-0.192089	-0.10548	-3.19853	-0.343364	0.949714	0.0307283	-0.0962216	-0.244756	-0.14549	1.16508	-0.28675	0	0	0.224396	0.131649	-0.165524	0.522533	0.108865	0	0	-0.388219	-0.165558	0.114991	0.533515	-0.302299	1.46417	0.576849	0.474008	0	0	0.0641114	-0.292521	1.57073	0.353642	-0.00738396	0	0
8.34217	-0.189661	-0.101687	-3.19721	-0.342287	0.95276	0.0321793	-0.0586729	-0.243947	-0.144357	1.1958	-0.275722	0	0	0.204955	0.132024	-0.160341	0.509734	0.118745	0	0	-0.387322	-0.158355	0.105149	0.516305	-0.293195	1.4953	0.549968	0.422288	0	0	0.0906077	-0.288853	1.571	0.359598	-0.00756377	0	0
